<svg version="1" xmlns="http://www.w3.org/2000/svg" width="682.667" height="682.667" viewBox="0 0 512.000000 512.000000"><path d="M225.8 4.5c-89 10.8-165.2 67-201.3 148.4-39 88-24.4 192.7 37.3 266.1 89.4 106.6 250.6 120.6 357.2 31.2C525.6 360.8 539.6 199.6 450.2 93 408.7 43.5 350 12.1 285.1 4.5c-15.2-1.8-44.5-1.8-59.3 0zm69.7 102.9c19.1 3 38.6 8.1 55.7 14.7l7.8 3v23c0 19.7-.2 22.9-1.5 22.9-.8 0-4.3-2.1-7.7-4.6-9-6.6-30.4-16.8-43.8-20.8-34.8-10.4-68.7-9.8-92 1.6-9.3 4.5-19.9 15.3-23 23.3-5.1 13.3-2.2 32.4 6.2 42 9.8 11.1 20.8 15 63.3 22.5 55.8 9.9 73.8 16.5 91.1 33.5 11.8 11.6 16.4 22.1 18.5 41.5 2.8 26.8-9.1 55-30.2 71.6-18.1 14.3-39.3 22.7-64.8 25.4-14 1.6-46.4.8-60.6-1.5-19.5-3-41.3-9.3-60.7-17.4l-7.8-3.3v-24.4c0-27.6-.2-27.1 7.3-21 15.8 12.8 39.4 24 63.2 30.1 40.1 10.2 79.3 5.1 99.3-13.1 10.3-9.3 15.1-22.1 13.9-36.9-2.3-26.5-17.6-35.7-74.7-44.9-34.4-5.6-51.6-10.2-66.9-18.1-26.6-13.8-40.1-36.5-40.1-67.2.1-21.8 6.8-38.2 21.8-53 16.1-16 39.3-26.5 66.2-30.3 9.6-1.3 47.8-.4 59.5 1.4z"/></svg>